<?xml version="1.0" encoding="utf-8"?>
<!-- Generator: Adobe Illustrator 27.0.1, SVG Export Plug-In . SVG Version: 6.00 Build 0)  -->
<svg version="1.1" id="Calque_1" xmlns="http://www.w3.org/2000/svg" xmlns:xlink="http://www.w3.org/1999/xlink" x="0px" y="0px"
	 viewBox="0 0 612 792" style="enable-background:new 0 0 612 792;" xml:space="preserve">
<style type="text/css">
	.st0{fill:#E4EBF7;stroke:#80CDBF;stroke-miterlimit:10;}
	.st1{fill:#1C1C53;}
	.st2{fill:#1C1C53;stroke:#80CDBF;stroke-miterlimit:10;}
	.st3{fill:#80CDBF;stroke:#1C1C53;stroke-miterlimit:10;}
	.st4{fill:#1C1C53;stroke:#D0DBF0;stroke-miterlimit:10;}
	.st5{fill:#224193;stroke:#8ECBDD;stroke-miterlimit:10;}
</style>
<g>
	<path class="st0" d="M313.98,457.74c-0.25,1.77-0.24,6.08-0.01,7.51c0.6,0.37,1.28,0.22,1.92,0.22c3.49,0.02,6.97,0.01,10.46,0.01
		c0.54,0,1.09-0.02,1.62,0.04c1.21,0.14,2.07,1.05,1.98,2.14c-0.09,1.14-0.83,1.93-1.93,2.01c-0.42,0.03-0.84,0.04-1.26,0.04
		c-9.38,0.03-18.76,0.08-28.14,0.1c-10.1,0.02-20.2,0.02-30.3,0.02c-0.54,0-1.09,0.03-1.62-0.03c-1.22-0.14-1.97-1.02-1.94-2.18
		c0.03-1.16,0.81-1.92,2.09-2.01c0.42-0.03,0.84-0.01,1.26-0.01c3.49,0,6.97,0.01,10.46-0.01c1.01-0.01,2.03,0.09,2.99-0.24
		c0.27-1.36,0.31-5.5,0.07-7.45c-0.3-0.06-0.63-0.17-0.97-0.19c-0.54-0.03-1.08-0.01-1.62-0.01c-10.94,0-21.89,0.01-32.83,0
		c-3.52,0-6.43-1.35-8.68-4.03c-1.73-2.05-2.54-4.44-2.55-7.1c-0.01-5.44,0-10.87,0-16.31c0-4.36,0-8.72,0-13.08
		c0-0.64-0.05-1.28-0.06-1.79c-0.18-0.17-0.22-0.22-0.27-0.24c-0.05-0.03-0.11-0.04-0.17-0.04c-0.48-0.02-0.96-0.05-1.44-0.05
		c-7.76,0.01-15.51,0.02-23.27,0.03c-0.11,0-0.23,0.07-0.46,0.14c-0.12,0.5-0.29,1.07-0.39,1.64c-1.45,7.87-7.96,15.5-17.96,16.74
		c-11.91,1.47-21.49-6.6-23.4-16.92c-2.13-11.53,5.51-22.35,16.97-24.38c12.04-2.13,22.4,6.02,24.39,16.62
		c0.11,0.58,0.26,1.15,0.39,1.67c1.46,0.21,21.07,0.33,24.63,0.16c0.29-0.01,0.57-0.09,0.82-0.14c0.35-0.71,0.22-1.37,0.22-2.02
		c0.01-6.45,0.02-12.9,0-19.35c0-1.33,0.17-2.62,0.6-3.87c1.52-4.47,5.62-7.45,10.37-7.52c1.98-0.03,3.97-0.01,5.95-0.01
		c0.6,0,1.19,0,1.67,0c0.58-0.55,0.43-1.12,0.43-1.64c0.01-3.4,0.01-6.81,0.01-10.21c0-3.58,0-7.17,0-10.75
		c0-2.44-0.8-4.57-2.57-6.29c-1.52-1.48-3.34-2.32-5.48-2.39c-1.31-0.04-2.63-0.01-4.05-0.01c-0.2,0.7-0.37,1.32-0.55,1.93
		c-1.73,6.01-7.27,10.56-14.06,10.62c-8.17,0.07-13.93-6.11-14.86-12.74c-0.95-6.76,3.24-14.75,11.79-16.4
		c8.87-1.7,15.35,4.05,17.13,10.29c0.18,0.62,0.35,1.25,0.56,1.98c0.99,0.02,1.94,0.04,2.89,0.05c1.26,0.02,2.51,0.01,3.76,0.32
		c5.67,1.43,9.59,6.29,9.71,12.11c0.03,1.31,0.01,2.63,0.01,3.94c0,5.67,0,11.35,0,17.02c0,0.64,0.04,1.29,0.07,1.95
		c0.74,0.31,1.4,0.2,2.05,0.2c5.35,0.01,10.7,0.01,16.05,0.01c5.71,0,11.42,0.01,17.14-0.01c0.65,0,1.32,0.14,2.02-0.22
		c0.05-0.37,0.13-0.78,0.14-1.18c0.04-1.73,0.07-3.46,0.07-5.19c0.02-7.17,0.02-14.33,0.03-21.5c0-0.65,0-1.31,0-2.04
		c-0.47-0.14-0.84-0.31-1.24-0.36c-8.9-1.22-17.8-8.11-19.5-19.18c-2.16-14.05,8-24.62,19.24-26.37
		c11.68-1.82,23.26,5.44,26.14,17.19c3.27,13.33-5.35,25.3-17.22,28c-0.98,0.22-1.98,0.4-3.01,0.61c-0.05,0.37-0.12,0.66-0.12,0.94
		c-0.01,9.67,0,19.34,0,29.1c0.38,0.08,0.72,0.18,1.06,0.21c0.42,0.04,0.84,0.01,1.26,0.01c11.24,0,22.49,0,33.73,0
		c0.71,0,1.42-0.04,2.15-0.06c0.28-0.73,0.2-1.39,0.2-2.03c0.01-6.69,0.01-13.38,0-20.07c0-1.56,0.17-3.1,0.64-4.59
		c1.85-5.81,7.29-8.89,11.9-8.8c1.26,0.03,2.51-0.02,3.85-0.03c0.18-0.65,0.33-1.22,0.5-1.78c1.77-5.69,5.55-9.39,11.42-10.51
		c9.44-1.8,16.15,4.87,17.45,11.71c1.65,8.64-5.05,17.8-15.24,17.41c-6.63-0.26-11.92-4.78-13.61-10.73
		c-0.16-0.57-0.32-1.13-0.49-1.72c-1.76-0.16-3.44-0.23-5.1,0.03c-3.5,0.54-6.31,3.44-6.84,6.95c-0.1,0.65-0.16,1.31-0.16,1.96
		c-0.01,6.81-0.01,13.62,0,20.43c0,0.53,0.06,1.05,0.1,1.68c0.41,0.06,0.74,0.15,1.08,0.15c1.86,0.02,3.73,0.03,5.59,0.01
		c6.04-0.09,11.18,4.89,11.17,11c-0.02,6.57,0,13.14,0,19.71c0,0.65,0.04,1.29,0.05,1.91c0.72,0.42,1.4,0.28,2.04,0.29
		c4.81,0.01,9.62,0.01,14.43,0.01c2.77,0,5.53,0,8.3,0c0.59,0,1.19-0.03,1.88-0.05c0.13-0.51,0.28-0.96,0.36-1.42
		c1.54-8.64,8.22-15.44,16.91-16.98c12.39-2.21,22.93,6.42,24.63,17.4c1.7,11.02-5.82,21.64-16.85,23.68
		c-12.11,2.25-22.78-5.94-24.69-16.87c-0.08-0.46-0.22-0.91-0.32-1.33c-1.51-0.2-21.65-0.32-25.7-0.15
		c-0.29,0.01-0.57,0.08-0.9,0.13c-0.23,0.77-0.15,1.48-0.15,2.19c-0.01,9.5,0.01,18.99-0.02,28.49c0,1.13-0.06,2.28-0.32,3.37
		c-1.18,5-5.53,8.43-10.71,8.46c-6.19,0.03-12.39,0.01-18.58,0.01c-5.05,0-10.1,0-15.15,0
		C315.38,457.69,314.73,457.72,313.98,457.74z M298.04,382.09c-16.77,0-33.55,0-50.32,0c-0.66,0-1.32-0.02-1.98,0.03
		c-3.17,0.23-5.66,2.38-6.29,5.48c-0.16,0.81-0.19,1.66-0.19,2.49c-0.01,18.45-0.01,36.91-0.01,55.36c0,0.48-0.02,0.96,0.01,1.43
		c0.23,3.31,2.5,5.87,5.75,6.45c0.64,0.11,1.32,0.1,1.98,0.1c33.97,0,67.94,0,101.9,0c0.3,0,0.6,0.01,0.9-0.01
		c3.72-0.14,6.57-2.96,6.72-6.64c0.02-0.48,0.01-0.96,0.01-1.43c0-18.39,0-36.79,0-55.18c0-0.54,0.01-1.08-0.01-1.61
		c-0.16-2.91-2.12-5.33-4.94-6.18c-1-0.3-2.01-0.3-3.04-0.3C331.71,382.09,314.87,382.09,298.04,382.09z M279.15,324.59
		c-0.23,8.98,7.14,18.77,18.93,18.72c11.49-0.05,18.81-9.5,18.82-18.7c0.02-9.8-7.93-18.81-18.89-18.82
		C286.84,305.79,278.93,315.08,279.15,324.59z M188.3,429.48c8.97,0.11,16.72-7.4,16.71-16.64c-0.01-8.76-7.23-16.6-16.79-16.59
		c-8.88,0.01-16.75,7.08-16.7,16.67C171.58,423.25,180.26,429.69,188.3,429.48z M408.62,429.48c8.1,0.18,16.71-6.37,16.73-16.62
		c0.02-9.43-7.71-16.62-16.76-16.61c-9.08,0-16.75,7.3-16.73,16.65C391.89,422.83,400.26,429.66,408.62,429.48z M227.2,333.98
		c-4.88-0.22-10.56,3.74-10.58,10.39c-0.02,6.08,4.85,10.49,10.52,10.47c5.71-0.01,10.53-4.47,10.49-10.51
		C237.6,337.75,232,333.83,227.2,333.98z M359.25,344.42c-0.15,4.97,3.97,10.45,10.56,10.42c5.89-0.03,10.42-4.65,10.44-10.38
		c0.02-6.6-5.58-10.52-10.49-10.51C364.1,333.95,359.11,338.71,359.25,344.42z M286.09,465.44c0.85,0.04,1.44,0.09,2.03,0.09
		c2.88,0.01,5.76,0,8.65,0c3.6,0,7.21,0.01,10.81-0.01c0.58,0,1.21,0.17,1.79-0.35c0.22-1.17,0.12-2.43,0.09-3.67
		c-0.03-1.23,0.25-2.49-0.23-3.71c-0.28-0.04-0.52-0.1-0.75-0.1c-7.15,0-14.29-0.01-21.44,0c-0.28,0-0.56,0.1-0.92,0.18
		C286.04,460.39,286.07,462.82,286.09,465.44z"/>
	<path class="st1" d="M308.61,485.46c-0.02,0.21-0.06,0.41-0.06,0.6c-0.01,0.66,0,1.31,0,1.97c0,0.18,0.01,0.35-0.01,0.53
		c-0.06,0.57-0.46,0.88-1.06,0.84c-0.4-0.03-0.7-0.19-0.82-0.55c-0.07-0.21-0.11-0.44-0.11-0.67c-0.01-2.25,0-4.5,0-6.74
		c0-0.08,0-0.15,0-0.23c0.06-0.67,0.36-0.97,1.1-0.98c1.45-0.01,2.9,0,4.35,0.01c0.25,0,0.5,0.05,0.74,0.11
		c1.9,0.47,2.31,2.27,1.7,3.46c-0.23,0.45-0.62,0.77-1.11,0.99c-0.3,0.13-0.6,0.24-0.96,0.38c0.15,0.14,0.28,0.27,0.41,0.39
		c0.86,0.74,1.49,1.63,1.94,2.62c0.23,0.51,0.14,0.86-0.23,1.07c-0.42,0.24-1.03,0.17-1.38-0.17c-0.15-0.15-0.27-0.32-0.39-0.49
		c-0.35-0.52-0.69-1.04-1.04-1.55c-0.19-0.28-0.39-0.55-0.6-0.82C310.47,485.45,309.64,485.26,308.61,485.46z M308.64,481.59
		c-0.15,0.9-0.13,1.9,0.04,2.46c0.87,0.03,1.75,0.04,2.64-0.04c0.16-0.02,0.33-0.07,0.48-0.12c0.56-0.19,0.79-0.5,0.8-1.03
		c0.01-0.56-0.25-0.93-0.79-1.13c-0.15-0.06-0.32-0.1-0.48-0.11C310.45,481.56,309.56,481.58,308.64,481.59z"/>
	<path class="st2" d="M268.42,472.16c1.64-0.05,3.19,0.19,4.62,0.93c1.19,0.62,2.05,1.48,2.42,2.68c0.17,0.54,0.1,1.06-0.24,1.55
		c-0.62,0.88-2.12,1.02-2.79,0.12c-0.27-0.37-0.53-0.74-0.77-1.13c-0.71-1.15-1.83-1.66-3.27-1.66c-0.89,0-1.77,0.1-2.54,0.55
		c-1.41,0.81-1.43,2.17-0.01,2.97c0.46,0.26,0.99,0.43,1.51,0.57c1.11,0.3,2.24,0.52,3.35,0.82c0.84,0.23,1.68,0.49,2.49,0.79
		c4.43,1.63,3.78,6.64,1.1,8.36c-0.62,0.4-1.29,0.78-2.01,1c-2.48,0.75-5.01,0.77-7.48,0.02c-1.87-0.57-3.2-1.73-3.86-3.4
		c-0.18-0.45-0.23-0.96-0.21-1.43c0.02-0.62,0.54-1.1,1.2-1.25c0.7-0.16,1.33-0.05,1.79,0.47c0.23,0.27,0.4,0.58,0.58,0.88
		c0.21,0.34,0.36,0.72,0.61,1.04c0.28,0.36,0.6,0.71,0.99,0.97c1.42,0.95,4.22,0.79,5.6-0.22c1.2-0.88,1.33-2.82-0.36-3.58
		c-0.73-0.33-1.54-0.54-2.33-0.75c-1.16-0.31-2.35-0.54-3.5-0.88c-0.73-0.22-1.44-0.52-2.08-0.88c-3.01-1.71-2.8-5.59-0.15-7.26
		c1.11-0.7,2.36-1.06,3.69-1.2C267.31,472.18,267.86,472.18,268.42,472.16z"/>
	<path class="st1" d="M304.82,483.78c0,0.66,0.01,1.32-0.01,1.97c-0.01,0.4-0.04,0.81-0.13,1.21c-0.27,1.29-1.19,2.05-2.55,2.33
		c-1.1,0.22-2.22,0.18-3.32-0.09c-1.19-0.3-1.92-1.01-2.19-2.08c-0.11-0.42-0.17-0.85-0.18-1.28c-0.02-1.52-0.01-3.04-0.01-4.56
		c0-0.13-0.01-0.25,0.01-0.38c0.07-0.54,0.43-0.83,1-0.82c0.57,0.01,0.91,0.3,0.97,0.84c0.02,0.2,0.02,0.4,0.02,0.61
		c0,1.32-0.01,2.63,0.01,3.95c0.01,0.4,0.05,0.81,0.14,1.2c0.15,0.65,0.6,1.06,1.34,1.21c0.5,0.1,0.99,0.09,1.49-0.02
		c0.6-0.13,0.98-0.47,1.18-0.98c0.17-0.41,0.21-0.83,0.21-1.27c-0.01-1.37,0-2.73,0-4.1c0-0.23-0.01-0.46,0.03-0.68
		c0.09-0.53,0.47-0.79,1.05-0.77c0.52,0.02,0.86,0.3,0.91,0.82c0.04,0.48,0.02,0.96,0.03,1.44
		C304.82,482.82,304.82,483.3,304.82,483.78C304.82,483.78,304.82,483.78,304.82,483.78z"/>
	<path class="st1" d="M279.65,481.67c-0.12,0.71-0.06,1.38-0.05,2.01c0.23,0.22,0.47,0.17,0.68,0.17c1.01,0.01,2.01,0,3.02,0.01
		c0.28,0,0.56,0.01,0.83,0.05c0.34,0.05,0.52,0.27,0.55,0.59c0.02,0.32-0.12,0.57-0.44,0.66c-0.21,0.06-0.44,0.08-0.66,0.08
		c-1.01,0.01-2.01,0-3.02,0c-0.28,0-0.55,0-0.84,0c-0.25,0.44-0.12,0.87-0.13,1.29c-0.01,0.4-0.06,0.8,0.07,1.24
		c0.22,0.02,0.43,0.06,0.65,0.06c1.2,0.01,2.4,0,3.6,0c0.22,0,0.45,0,0.67,0.02c0.4,0.05,0.66,0.32,0.68,0.66
		c0.02,0.33-0.23,0.63-0.62,0.7c-0.22,0.04-0.44,0.05-0.67,0.05c-1.65,0-3.3,0-4.95,0c-0.25,0-0.5-0.02-0.75-0.07
		c-0.37-0.06-0.59-0.28-0.66-0.61c-0.04-0.22-0.06-0.45-0.06-0.68c0-2.13,0-4.25,0-6.38c0-0.2,0.01-0.41,0.05-0.6
		c0.08-0.4,0.34-0.61,0.79-0.67c0.16-0.02,0.33-0.02,0.5-0.02c1.68,0,3.35,0,5.03,0c0.17,0,0.34,0,0.5,0.02
		c0.4,0.05,0.67,0.33,0.66,0.67c0,0.34-0.26,0.62-0.67,0.67c-0.22,0.03-0.45,0.02-0.67,0.02c-1.15,0-2.29,0-3.44,0
		C280.12,481.63,279.9,481.66,279.65,481.67z"/>
	<path class="st1" d="M286.16,484.71c-0.02-0.6,0.07-1.22,0.3-1.83c0.65-1.71,2.25-2.76,4.24-2.81c1.13-0.03,2.16,0.18,3.07,0.81
		c0.52,0.36,0.94,0.79,1.14,1.37c0.07,0.19,0.11,0.4,0.11,0.59c-0.01,0.33-0.21,0.57-0.55,0.7c-0.35,0.12-0.74,0.03-0.98-0.25
		c-0.18-0.22-0.33-0.47-0.49-0.7c-0.57-0.8-1.4-1.24-2.66-1.01c-0.94,0.17-1.51,0.74-1.83,1.52c-0.32,0.77-0.39,1.58-0.27,2.39
		c0.06,0.43,0.16,0.84,0.37,1.24c0.46,0.84,1.23,1.23,2.23,1.24c0.97,0.01,1.73-0.36,2.2-1.15c0.15-0.24,0.24-0.51,0.38-0.76
		c0.21-0.37,0.59-0.52,0.97-0.43c0.4,0.1,0.65,0.39,0.66,0.78s-0.11,0.75-0.31,1.09c-0.55,0.96-1.42,1.55-2.57,1.8
		c-0.91,0.19-1.83,0.16-2.74-0.04c-1-0.21-1.76-0.74-2.34-1.5C286.58,487.11,286.1,486.03,286.16,484.71z"/>
	<path class="st3" d="M324.11,475.49c-0.33-0.04-0.66-0.1-0.98-0.1c-0.87-0.02-1.74,0-2.61-0.01c-0.29,0-0.58-0.02-0.86-0.1
		c-0.65-0.18-1.07-0.75-1.04-1.37c0.03-0.63,0.5-1.17,1.16-1.28c0.28-0.05,0.58-0.05,0.87-0.05c3.58,0,7.16,0,10.74,0
		c0.29,0,0.58,0.01,0.87,0.06c0.63,0.12,1.02,0.56,1.07,1.17c0.06,0.67-0.19,1.15-0.79,1.37c-0.35,0.13-0.75,0.18-1.13,0.19
		c-0.82,0.03-1.64,0-2.47,0.01c-0.33,0-0.66,0.04-0.96,0.07c-0.34,0.48-0.22,0.97-0.22,1.43c-0.01,3.42,0,6.84-0.01,10.26
		c0,0.43,0.01,0.86-0.07,1.28c-0.2,0.98-0.9,1.49-1.87,1.4c-0.89-0.08-1.42-0.64-1.51-1.61c-0.03-0.38-0.02-0.76-0.02-1.14
		c0-3.32,0-6.65-0.01-9.97C324.26,476.58,324.36,476.05,324.11,475.49z"/>
	<path class="st4" d="M322.43,484.72c0,1.14,0.01,2.27-0.01,3.41c0,0.25-0.03,0.51-0.12,0.74c-0.15,0.39-0.53,0.57-1,0.53
		c-0.42-0.04-0.74-0.26-0.83-0.64c-0.05-0.22-0.07-0.45-0.07-0.68c0-2.22,0-4.44,0-6.66c0-0.23,0.01-0.46,0.06-0.68
		c0.09-0.39,0.38-0.62,0.8-0.66c0.54-0.04,0.9,0.13,1.05,0.56c0.08,0.21,0.1,0.44,0.1,0.67
		C322.44,482.45,322.43,483.58,322.43,484.72z"/>
	<path class="st5" d="M297.32,446.54c-5.77,0-11.54,0-17.31,0c-0.48,0-0.97,0.03-1.44-0.03c-1.07-0.12-1.76-0.78-1.92-1.82
		c-0.06-0.41-0.06-0.83-0.06-1.25c0-5.91-0.02-11.82,0-17.73c0.02-4.43,1.31-8.48,4-12.03c0.71-0.94,0.92-1.86,0.87-2.97
		c-0.15-3.42,0.22-6.79,1.1-10.11c0.46-1.74,1.09-3.41,1.96-4.99c2.86-5.14,7.28-7.6,13.16-7.47c5.68,0.12,9.82,2.76,12.55,7.65
		c1.6,2.86,2.4,5.97,2.88,9.18c0.32,2.13,0.46,4.28,0.36,6.43c-0.04,0.81,0.16,1.47,0.67,2.14c2.13,2.82,3.43,6.01,3.91,9.51
		c0.14,1,0.17,2.02,0.17,3.04c0.02,5.79-0.05,11.58,0.04,17.38c0.03,2.4-1.05,3.14-3.09,3.12
		C309.23,446.49,303.27,446.54,297.32,446.54z M313.84,442.12c0.04-0.49,0.11-0.9,0.11-1.31c0.01-5.01,0.02-10.03-0.01-15.04
		c-0.01-1.01-0.12-2.03-0.31-3.02c-2.1-11.12-15.08-17.27-25.25-10.63c-4.93,3.21-7.4,7.89-7.49,13.72
		c-0.08,5.01-0.02,10.03-0.01,15.04c0,0.4,0.1,0.81,0.16,1.28c0.41,0.05,0.76,0.12,1.1,0.13
		C288.77,442.49,311.99,442.37,313.84,442.12z M309.12,408.24c-0.21-3.02-0.7-6-1.9-8.83c-0.51-1.22-1.16-2.36-1.98-3.4
		c-1.48-1.86-3.4-3.04-5.74-3.42c-1.11-0.18-2.28-0.19-3.41-0.12c-2.65,0.15-4.84,1.28-6.53,3.33c-0.85,1.02-1.49,2.17-2,3.39
		c-1.13,2.74-1.58,5.62-1.78,8.55c-0.01,0.21-0.05,0.5,0.4,0.59c0.44-0.23,0.97-0.5,1.49-0.77c3.43-1.8,7.08-2.61,10.95-2.38
		c3.16,0.19,6.14,1.05,8.92,2.57C307.99,407.98,308.37,408.47,309.12,408.24z"/>
	<path class="st5" d="M302.68,428.96c0.69,2.06,1.36,4.03,2.03,6.01c0.15,0.45,0.33,0.9,0.42,1.37c0.23,1.2-0.55,2.27-1.78,2.45
		c-0.35,0.05-0.72,0.05-1.08,0.05c-3.12,0-6.25,0-9.37,0c-0.12,0-0.24-0.01-0.36,0c-1.72,0.1-2.87-1.05-2.34-3.07
		c0.47-1.79,0.92-3.58,1.51-5.33c0.34-1.02,0.16-1.74-0.47-2.61c-2.77-3.82-1.45-9.06,2.72-11.14c3.01-1.5,6.61-0.86,8.93,1.59
		c2.29,2.42,2.7,6.08,0.99,8.95C303.54,427.79,303.13,428.31,302.68,428.96z M299.74,434.44c0.13-0.87-0.33-1.54-0.55-2.26
		c-0.33-1.08-0.73-2.14-1.06-3.22c-0.33-1.06-0.15-2,0.81-2.7c0.29-0.21,0.58-0.43,0.82-0.69c1.2-1.32,1.13-3.28-0.16-4.5
		c-1.29-1.23-3.27-1.21-4.53,0.03c-1.28,1.26-1.32,3.17-0.09,4.49c0.28,0.3,0.62,0.55,0.94,0.82c0.55,0.46,0.76,1.07,0.72,1.75
		c-0.02,0.47-0.12,0.94-0.24,1.4c-0.32,1.21-0.67,2.41-0.99,3.61c-0.1,0.38-0.15,0.78-0.23,1.24
		C296.77,434.62,298.24,434.63,299.74,434.44z"/>
</g>
</svg>
