<?xml version="1.0" encoding="utf-8"?>
<!-- Generator: Adobe Illustrator 27.0.1, SVG Export Plug-In . SVG Version: 6.00 Build 0)  -->
<svg version="1.1" id="Calque_1" xmlns="http://www.w3.org/2000/svg" xmlns:xlink="http://www.w3.org/1999/xlink" x="20px" y="20px"
	 viewBox="0 0 180 180" style="enable-background:new 0 0 120 120;" xml:space="preserve">
<style type="text/css">
	.st0{fill:#E3EAF6;stroke:#80CCBE;stroke-miterlimit:10;}
	.st1{fill:#1C1C53;}
	.st2{fill:#1C1C53;stroke:#80CCBE;stroke-miterlimit:10;}
	.st3{fill:#80CCBE;stroke:#1C1C53;stroke-miterlimit:10;}
	.st4{fill:#1C1C53;stroke:#D0DAEF;stroke-miterlimit:10;}
	.st5{fill:#234193;stroke:#8ECADD;stroke-miterlimit:10;}
</style>
<g>
	<path class="st0" d="M100.5,127.81c-0.17,1.21-0.16,4.16-0.01,5.14c0.4,0.25,0.86,0.15,1.29,0.15c2.34,0.01,4.67,0,7.01,0.01
		c0.36,0,0.73-0.01,1.09,0.03c0.81,0.09,1.39,0.72,1.33,1.47c-0.06,0.78-0.56,1.32-1.29,1.38c-0.28,0.02-0.56,0.02-0.84,0.03
		c-6.28,0.02-12.57,0.05-18.85,0.07c-6.77,0.01-13.54,0.01-20.3,0.02c-0.36,0-0.73,0.02-1.09-0.02c-0.81-0.1-1.32-0.7-1.3-1.49
		c0.02-0.8,0.54-1.31,1.4-1.37c0.28-0.02,0.56-0.01,0.85-0.01c2.34,0,4.67,0.01,7.01-0.01c0.67,0,1.36,0.06,2-0.17
		c0.18-0.93,0.21-3.76,0.05-5.1c-0.2-0.04-0.42-0.11-0.65-0.13c-0.36-0.02-0.72-0.01-1.09-0.01c-7.33,0-14.66,0-21.99,0
		c-2.36,0-4.31-0.92-5.82-2.75c-1.16-1.4-1.71-3.04-1.71-4.86c0-3.72,0-7.44,0-11.15c0-2.98,0-5.97,0-8.95
		c0-0.44-0.03-0.88-0.04-1.23c-0.12-0.11-0.15-0.15-0.18-0.17c-0.03-0.02-0.08-0.03-0.11-0.03c-0.32-0.01-0.64-0.03-0.96-0.03
		c-5.2,0-10.39,0.01-15.59,0.02c-0.08,0-0.15,0.05-0.31,0.1c-0.08,0.34-0.19,0.73-0.26,1.12c-0.97,5.38-5.33,10.61-12.03,11.45
		c-7.98,1.01-14.4-4.52-15.68-11.57c-1.43-7.89,3.69-15.29,11.37-16.68c8.06-1.46,15.01,4.12,16.34,11.37
		c0.07,0.39,0.18,0.78,0.26,1.14c0.98,0.14,14.12,0.22,16.5,0.11c0.19-0.01,0.38-0.06,0.55-0.09c0.23-0.48,0.15-0.94,0.15-1.38
		c0.01-4.41,0.01-8.83,0-13.24c0-0.91,0.12-1.79,0.4-2.65c1.02-3.06,3.77-5.1,6.95-5.14c1.33-0.02,2.66,0,3.99,0c0.4,0,0.8,0,1.12,0
		c0.39-0.38,0.29-0.77,0.29-1.12c0.01-2.33,0.01-4.66,0.01-6.99c0-2.45,0-4.9,0-7.35c0-1.67-0.53-3.12-1.72-4.31
		c-1.02-1.01-2.24-1.59-3.67-1.64c-0.88-0.03-1.76-0.01-2.71-0.01c-0.13,0.48-0.25,0.9-0.37,1.32c-1.16,4.11-4.87,7.22-9.42,7.27
		c-5.47,0.05-9.33-4.18-9.96-8.72c-0.64-4.63,2.17-10.09,7.9-11.22c5.95-1.17,10.28,2.77,11.48,7.04c0.12,0.43,0.24,0.85,0.38,1.35
		c0.66,0.01,1.3,0.03,1.94,0.04c0.84,0.01,1.68,0.01,2.52,0.22c3.8,0.98,6.42,4.3,6.51,8.28c0.02,0.9,0,1.8,0,2.7
		c0,3.88,0,7.76,0,11.64c0,0.44,0.03,0.88,0.04,1.33c0.49,0.21,0.94,0.14,1.37,0.14c3.59,0.01,7.17,0,10.76,0c3.83,0,7.65,0,11.48,0
		c0.43,0,0.88,0.1,1.35-0.15c0.03-0.26,0.09-0.53,0.1-0.81c0.02-1.18,0.04-2.37,0.05-3.55c0.01-4.9,0.01-9.81,0.02-14.71
		c0-0.45,0-0.89,0-1.4c-0.31-0.09-0.57-0.21-0.83-0.25c-5.96-0.83-11.93-5.54-13.07-13.12c-1.45-9.61,5.36-16.84,12.89-18.04
		c7.82-1.25,15.58,3.72,17.51,11.76c2.19,9.12-3.58,17.31-11.53,19.15c-0.66,0.15-1.33,0.28-2.01,0.42
		c-0.03,0.25-0.08,0.45-0.08,0.65c0,6.62,0,13.23,0,19.9c0.26,0.05,0.48,0.13,0.71,0.15c0.28,0.02,0.56,0.01,0.85,0.01
		c7.53,0,15.07,0,22.6,0c0.47,0,0.95-0.03,1.44-0.04c0.19-0.5,0.13-0.95,0.13-1.39c0-4.58,0.01-9.15,0-13.73
		c0-1.07,0.11-2.12,0.43-3.14c1.24-3.98,4.88-6.08,7.97-6.02c0.84,0.02,1.68-0.01,2.58-0.02c0.12-0.44,0.22-0.83,0.34-1.22
		c1.19-3.89,3.72-6.42,7.65-7.19c6.32-1.23,10.82,3.33,11.69,8.01c1.1,5.91-3.38,12.18-10.21,11.91c-4.44-0.18-7.99-3.27-9.12-7.34
		c-0.11-0.39-0.21-0.77-0.32-1.18c-1.18-0.11-2.31-0.16-3.42,0.02c-2.34,0.37-4.23,2.35-4.58,4.76c-0.07,0.44-0.1,0.89-0.1,1.34
		c-0.01,4.66-0.01,9.32,0,13.97c0,0.36,0.04,0.72,0.07,1.15c0.27,0.04,0.5,0.1,0.73,0.1c1.25,0.01,2.5,0.02,3.75,0
		c4.05-0.06,7.49,3.34,7.48,7.52c-0.01,4.49,0,8.99,0,13.48c0,0.44,0.02,0.88,0.04,1.31c0.48,0.29,0.94,0.19,1.37,0.2
		c3.22,0.01,6.45,0,9.67,0c1.85,0,3.71,0,5.56,0c0.4,0,0.8-0.02,1.26-0.03c0.09-0.35,0.19-0.66,0.24-0.97
		c1.03-5.91,5.51-10.56,11.33-11.62c8.3-1.51,15.37,4.39,16.5,11.9c1.14,7.54-3.9,14.8-11.29,16.2
		c-8.11,1.54-15.27-4.06-16.54-11.54c-0.05-0.31-0.14-0.62-0.21-0.91c-1.01-0.14-14.5-0.22-17.22-0.1c-0.19,0.01-0.38,0.05-0.6,0.09
		c-0.15,0.52-0.1,1.01-0.1,1.49c0,6.5,0,12.99-0.01,19.49c0,0.77-0.04,1.56-0.21,2.31c-0.79,3.42-3.71,5.77-7.18,5.79
		c-4.15,0.02-8.3,0.01-12.45,0.01c-3.38,0-6.77,0-10.15,0C101.44,127.78,101,127.8,100.5,127.81z M89.82,76.06
		c-11.24,0-22.48,0-33.71,0c-0.44,0-0.89-0.01-1.33,0.02c-2.12,0.16-3.79,1.63-4.21,3.75c-0.11,0.55-0.13,1.13-0.13,1.7
		c-0.01,12.62-0.01,25.25,0,37.87c0,0.33-0.01,0.65,0.01,0.98c0.15,2.27,1.67,4.02,3.86,4.41c0.43,0.08,0.88,0.07,1.32,0.07
		c22.76,0,45.51,0,68.27,0c0.2,0,0.4,0,0.6,0c2.49-0.1,4.4-2.03,4.5-4.54c0.01-0.33,0.01-0.65,0.01-0.98c0-12.58,0-25.16,0-37.75
		c0-0.37,0.01-0.74-0.01-1.1c-0.11-1.99-1.42-3.64-3.31-4.23c-0.67-0.21-1.35-0.21-2.03-0.21C112.37,76.06,101.1,76.06,89.82,76.06z
		 M77.16,36.73c-0.15,6.15,4.79,12.84,12.68,12.81c7.7-0.03,12.6-6.5,12.61-12.79c0.01-6.7-5.31-12.87-12.66-12.87
		C82.31,23.86,77.01,30.22,77.16,36.73z M16.3,108.48c6.01,0.08,11.2-5.07,11.2-11.39c-0.01-5.99-4.84-11.35-11.25-11.35
		c-5.95,0-11.22,4.84-11.19,11.4C5.09,104.21,10.91,108.62,16.3,108.48z M163.91,108.48c5.42,0.12,11.19-4.36,11.21-11.37
		c0.01-6.45-5.17-11.37-11.23-11.36c-6.08,0-11.22,5-11.21,11.39C152.7,103.93,158.3,108.6,163.91,108.48z M42.36,43.15
		c-3.27-0.15-7.07,2.56-7.09,7.11c-0.01,4.16,3.25,7.17,7.05,7.16c3.83-0.01,7.05-3.06,7.03-7.19
		C49.32,45.73,45.57,43.05,42.36,43.15z M130.83,50.29c-0.1,3.4,2.66,7.15,7.07,7.12c3.94-0.02,6.98-3.18,6.99-7.1
		c0.02-4.51-3.74-7.19-7.03-7.19C134.08,43.13,130.73,46.39,130.83,50.29z M81.81,133.08c0.57,0.03,0.97,0.06,1.36,0.06
		c1.93,0.01,3.86,0,5.79,0c2.41,0,4.83,0.01,7.24-0.01c0.39,0,0.81,0.11,1.2-0.24c0.15-0.8,0.08-1.66,0.06-2.51
		c-0.02-0.84,0.17-1.7-0.15-2.53c-0.19-0.03-0.35-0.07-0.5-0.07c-4.79,0-9.57,0-14.36,0c-0.19,0-0.37,0.07-0.62,0.12
		C81.78,129.62,81.8,131.29,81.81,133.08z"/>
	<path class="st1" d="M96.9,146.77c-0.01,0.14-0.04,0.28-0.04,0.41c0,0.45,0,0.9,0,1.35c0,0.12,0,0.24-0.01,0.36
		c-0.04,0.39-0.31,0.6-0.71,0.57c-0.27-0.02-0.47-0.13-0.55-0.37c-0.05-0.15-0.07-0.3-0.07-0.46c-0.01-1.54,0-3.08,0-4.61
		c0-0.05,0-0.1,0-0.16c0.04-0.46,0.24-0.66,0.74-0.67c0.97-0.01,1.94,0,2.91,0.01c0.17,0,0.33,0.03,0.5,0.07
		c1.27,0.32,1.54,1.55,1.14,2.36c-0.16,0.31-0.41,0.53-0.74,0.68c-0.2,0.09-0.41,0.17-0.64,0.26c0.1,0.1,0.19,0.19,0.28,0.27
		c0.58,0.51,1,1.12,1.3,1.8c0.15,0.35,0.1,0.59-0.16,0.73c-0.28,0.16-0.69,0.12-0.93-0.12c-0.1-0.1-0.18-0.22-0.26-0.34
		c-0.24-0.35-0.46-0.71-0.7-1.06c-0.13-0.19-0.26-0.38-0.4-0.56C98.14,146.77,97.59,146.64,96.9,146.77z M96.92,144.13
		c-0.1,0.62-0.09,1.3,0.03,1.68c0.58,0.02,1.18,0.03,1.77-0.03c0.11-0.01,0.22-0.05,0.32-0.08c0.37-0.13,0.53-0.34,0.53-0.71
		c0.01-0.38-0.17-0.64-0.53-0.77c-0.1-0.04-0.21-0.07-0.32-0.08C98.13,144.1,97.54,144.12,96.92,144.13z"/>
	<path class="st2" d="M69.97,137.68c1.1-0.04,2.14,0.13,3.1,0.64c0.8,0.42,1.37,1.01,1.62,1.83c0.11,0.37,0.07,0.72-0.16,1.06
		c-0.42,0.6-1.42,0.7-1.87,0.08c-0.18-0.25-0.36-0.51-0.52-0.77c-0.47-0.79-1.23-1.13-2.19-1.13c-0.6,0-1.18,0.07-1.7,0.37
		c-0.94,0.55-0.96,1.48-0.01,2.03c0.31,0.18,0.66,0.3,1.01,0.39c0.74,0.2,1.5,0.36,2.25,0.56c0.57,0.15,1.12,0.33,1.67,0.54
		c2.97,1.11,2.53,4.54,0.73,5.72c-0.42,0.27-0.87,0.54-1.35,0.68c-1.66,0.51-3.35,0.53-5.01,0.01c-1.25-0.39-2.14-1.18-2.58-2.33
		c-0.12-0.31-0.16-0.65-0.14-0.98c0.02-0.43,0.36-0.75,0.81-0.85c0.47-0.11,0.89-0.04,1.2,0.32c0.16,0.18,0.27,0.4,0.39,0.6
		c0.14,0.24,0.24,0.5,0.41,0.71c0.19,0.24,0.4,0.49,0.66,0.67c0.95,0.65,2.83,0.54,3.75-0.15c0.81-0.6,0.89-1.93-0.24-2.45
		c-0.49-0.22-1.03-0.37-1.56-0.51c-0.78-0.21-1.58-0.37-2.35-0.6c-0.49-0.15-0.96-0.35-1.4-0.6c-2.01-1.17-1.87-3.83-0.1-4.97
		c0.74-0.48,1.58-0.72,2.47-0.82C69.23,137.69,69.6,137.69,69.97,137.68z"/>
	<path class="st1" d="M94.36,145.63c0,0.45,0.01,0.9,0,1.35c-0.01,0.28-0.03,0.55-0.09,0.82c-0.18,0.88-0.79,1.4-1.71,1.59
		c-0.74,0.15-1.49,0.12-2.22-0.06c-0.8-0.2-1.28-0.69-1.47-1.43c-0.07-0.28-0.11-0.58-0.12-0.87c-0.01-1.04-0.01-2.08-0.01-3.12
		c0-0.09,0-0.17,0.01-0.26c0.05-0.37,0.29-0.56,0.67-0.56c0.38,0,0.61,0.2,0.65,0.58c0.02,0.14,0.01,0.28,0.01,0.42
		c0,0.9-0.01,1.8,0.01,2.7c0,0.27,0.04,0.55,0.1,0.82c0.1,0.45,0.4,0.72,0.89,0.83c0.34,0.07,0.66,0.06,1-0.01
		c0.4-0.09,0.66-0.32,0.79-0.67c0.11-0.28,0.14-0.57,0.14-0.87c0-0.93,0-1.87,0-2.8c0-0.16-0.01-0.31,0.02-0.47
		c0.06-0.36,0.31-0.54,0.7-0.53c0.35,0.02,0.58,0.21,0.61,0.56c0.03,0.33,0.01,0.66,0.02,0.99
		C94.36,144.97,94.36,145.3,94.36,145.63C94.36,145.63,94.36,145.63,94.36,145.63z"/>
	<path class="st1" d="M77.5,144.18c-0.08,0.49-0.04,0.95-0.03,1.38c0.15,0.15,0.31,0.12,0.46,0.12c0.67,0,1.35,0,2.02,0
		c0.19,0,0.38,0.01,0.56,0.04c0.23,0.04,0.35,0.19,0.37,0.4c0.02,0.22-0.08,0.39-0.29,0.45c-0.14,0.04-0.29,0.05-0.44,0.05
		c-0.67,0.01-1.35,0-2.02,0c-0.19,0-0.37,0-0.56,0c-0.17,0.3-0.08,0.6-0.09,0.88c-0.01,0.27-0.04,0.55,0.05,0.85
		c0.15,0.01,0.29,0.04,0.44,0.04c0.8,0,1.61,0,2.41,0c0.15,0,0.3,0,0.45,0.02c0.27,0.04,0.44,0.22,0.46,0.45
		c0.01,0.23-0.15,0.43-0.42,0.48c-0.15,0.03-0.3,0.03-0.45,0.03c-1.1,0-2.21,0-3.31,0c-0.17,0-0.34-0.02-0.5-0.04
		c-0.25-0.04-0.4-0.19-0.44-0.42c-0.03-0.15-0.04-0.31-0.04-0.46c0-1.45,0-2.91,0-4.36c0-0.14,0.01-0.28,0.03-0.41
		c0.05-0.27,0.23-0.42,0.53-0.46c0.11-0.01,0.22-0.02,0.34-0.02c1.12,0,2.25,0,3.37,0c0.11,0,0.23,0,0.34,0.01
		c0.27,0.04,0.45,0.23,0.44,0.46c0,0.24-0.18,0.42-0.45,0.46c-0.15,0.02-0.3,0.01-0.45,0.01c-0.77,0-1.54,0-2.3,0
		C77.81,144.15,77.67,144.17,77.5,144.18z"/>
	<path class="st1" d="M81.86,146.26c-0.01-0.41,0.04-0.84,0.2-1.25c0.44-1.17,1.5-1.89,2.84-1.92c0.76-0.02,1.45,0.13,2.06,0.55
		c0.35,0.25,0.63,0.54,0.77,0.94c0.04,0.13,0.07,0.27,0.07,0.4c-0.01,0.23-0.14,0.39-0.37,0.48c-0.23,0.09-0.5,0.02-0.65-0.17
		c-0.12-0.15-0.22-0.32-0.33-0.48c-0.38-0.55-0.94-0.85-1.78-0.69c-0.63,0.12-1.01,0.51-1.23,1.04c-0.22,0.53-0.26,1.08-0.18,1.64
		c0.04,0.29,0.11,0.58,0.25,0.85c0.31,0.57,0.82,0.84,1.49,0.85c0.65,0.01,1.16-0.25,1.47-0.79c0.1-0.17,0.16-0.35,0.25-0.52
		c0.14-0.25,0.39-0.36,0.65-0.29c0.27,0.07,0.43,0.27,0.44,0.53s-0.08,0.51-0.21,0.75c-0.37,0.66-0.95,1.06-1.72,1.23
		c-0.61,0.13-1.23,0.11-1.84-0.03c-0.67-0.15-1.18-0.5-1.57-1.02C82.14,147.9,81.82,147.17,81.86,146.26z"/>
	<path class="st3" d="M107.29,139.95c-0.22-0.02-0.44-0.07-0.66-0.07c-0.58-0.01-1.17,0-1.75-0.01c-0.19,0-0.39-0.02-0.57-0.07
		c-0.44-0.12-0.72-0.52-0.7-0.94c0.02-0.43,0.33-0.8,0.78-0.88c0.19-0.03,0.39-0.03,0.58-0.03c2.4,0,4.8,0,7.2,0
		c0.19,0,0.39,0.01,0.58,0.04c0.42,0.08,0.68,0.38,0.72,0.8c0.04,0.46-0.13,0.79-0.53,0.94c-0.24,0.09-0.5,0.12-0.76,0.13
		c-0.55,0.02-1.1,0-1.65,0.01c-0.22,0-0.44,0.03-0.64,0.05c-0.23,0.33-0.14,0.66-0.15,0.98c-0.01,2.34,0,4.68-0.01,7.02
		c0,0.29,0.01,0.59-0.05,0.87c-0.13,0.67-0.6,1.02-1.25,0.96c-0.6-0.06-0.95-0.44-1.01-1.1c-0.02-0.26-0.01-0.52-0.02-0.78
		c0-2.27,0-4.55,0-6.82C107.39,140.7,107.45,140.34,107.29,139.95z"/>
	<path class="st4" d="M106.16,146.27c0,0.78,0,1.55,0,2.33c0,0.17-0.02,0.35-0.08,0.51c-0.1,0.27-0.35,0.39-0.67,0.36
		c-0.28-0.02-0.49-0.18-0.55-0.44c-0.04-0.15-0.04-0.31-0.04-0.46c0-1.52,0-3.04,0-4.56c0-0.15,0.01-0.31,0.04-0.46
		c0.06-0.27,0.26-0.43,0.54-0.45c0.36-0.03,0.6,0.09,0.7,0.38c0.05,0.14,0.07,0.3,0.07,0.46
		C106.16,144.71,106.16,145.49,106.16,146.27z"/>
	<path class="st5" d="M89.34,120.15c-3.87,0-7.73,0-11.6,0c-0.32,0-0.65,0.02-0.97-0.02c-0.72-0.08-1.18-0.53-1.28-1.25
		c-0.04-0.28-0.04-0.57-0.04-0.86c0-4.04-0.01-8.09,0-12.13c0.01-3.03,0.88-5.8,2.68-8.23c0.48-0.64,0.62-1.27,0.58-2.03
		c-0.1-2.34,0.15-4.65,0.73-6.91c0.31-1.19,0.73-2.33,1.31-3.41c1.92-3.52,4.87-5.2,8.82-5.11c3.81,0.08,6.58,1.89,8.41,5.23
		c1.07,1.96,1.61,4.08,1.93,6.28c0.21,1.46,0.31,2.92,0.24,4.4c-0.03,0.56,0.11,1,0.45,1.46c1.43,1.93,2.3,4.11,2.62,6.5
		c0.09,0.68,0.11,1.38,0.11,2.08c0.01,3.96-0.03,7.92,0.02,11.89c0.02,1.64-0.71,2.15-2.07,2.13
		C97.31,120.12,93.32,120.15,89.34,120.15z M100.41,117.13c0.03-0.34,0.07-0.61,0.07-0.89c0-3.43,0.01-6.86-0.01-10.29
		c0-0.69-0.08-1.39-0.21-2.06c-1.41-7.61-10.1-11.81-16.92-7.27c-3.3,2.2-4.96,5.4-5.02,9.39c-0.05,3.43-0.01,6.86-0.01,10.29
		c0,0.28,0.07,0.55,0.11,0.87c0.27,0.03,0.51,0.08,0.74,0.09C83.61,117.38,99.16,117.3,100.41,117.13z M97.24,93.95
		c-0.14-2.07-0.47-4.1-1.27-6.04c-0.34-0.83-0.77-1.61-1.33-2.32c-0.99-1.27-2.28-2.08-3.84-2.34c-0.75-0.13-1.53-0.13-2.29-0.08
		c-1.78,0.1-3.24,0.88-4.38,2.28c-0.57,0.7-1,1.48-1.34,2.32c-0.76,1.87-1.06,3.84-1.19,5.85c-0.01,0.14-0.04,0.34,0.27,0.4
		c0.3-0.16,0.65-0.34,1-0.53c2.3-1.23,4.74-1.78,7.33-1.63c2.12,0.13,4.11,0.72,5.98,1.76C96.48,93.77,96.74,94.11,97.24,93.95z"/>
	<path class="st5" d="M92.92,108.13c0.46,1.41,0.91,2.76,1.36,4.11c0.1,0.31,0.22,0.62,0.28,0.93c0.15,0.82-0.37,1.55-1.19,1.68
		c-0.24,0.04-0.48,0.03-0.72,0.03c-2.09,0-4.18,0-6.28,0c-0.08,0-0.16-0.01-0.24,0c-1.15,0.07-1.93-0.72-1.57-2.1
		c0.32-1.22,0.62-2.45,1.01-3.65c0.23-0.7,0.11-1.19-0.32-1.79c-1.86-2.61-0.97-6.2,1.82-7.62c2.01-1.02,4.43-0.59,5.98,1.09
		c1.53,1.65,1.81,4.16,0.67,6.12C93.5,107.32,93.23,107.68,92.92,108.13z M90.96,111.87c0.09-0.6-0.22-1.05-0.37-1.54
		c-0.22-0.74-0.49-1.46-0.71-2.2c-0.22-0.73-0.1-1.37,0.54-1.85c0.19-0.14,0.39-0.29,0.55-0.47c0.81-0.9,0.75-2.24-0.11-3.08
		c-0.87-0.84-2.19-0.83-3.04,0.02c-0.86,0.86-0.89,2.17-0.06,3.07c0.19,0.21,0.42,0.38,0.63,0.56c0.37,0.31,0.51,0.73,0.49,1.2
		c-0.02,0.32-0.08,0.65-0.16,0.96c-0.21,0.83-0.45,1.65-0.66,2.47c-0.07,0.26-0.1,0.53-0.15,0.85C88.97,112,89.95,112,90.96,111.87z
		"/>
</g>
</svg>
